<svg width="100" height="100" viewBox="0 0 100 100" fill="none" xmlns="http://www.w3.org/2000/svg">
<rect width="100" height="100" fill="#F5F5F5"/>
<g clip-path="url(#clip0_0_1)">
<circle cx="50" cy="50" r="50" fill="#333333"/>
<path d="M95 50C95 74.8528 74.8528 95 50 95C25.1472 95 5 74.8528 5 50C5 25.1472 25.1472 5 50 5C74.8528 5 95 25.1472 95 50ZM23 50C23 64.9117 35.0883 77 50 77C64.9117 77 77 64.9117 77 50C77 35.0883 64.9117 23 50 23C35.0883 23 23 35.0883 23 50Z" fill="white"/>
<path d="M10.625 50C10.625 57.7876 12.9343 65.4004 17.2609 71.8756C21.5875 78.3508 27.737 83.3976 34.9318 86.3778C42.1267 89.358 50.0437 90.1377 57.6817 88.6184C65.3197 87.0991 72.3356 83.349 77.8423 77.8423C83.349 72.3356 87.0991 65.3197 88.6184 57.6817C90.1377 50.0437 89.358 42.1267 86.3778 34.9318C83.3976 27.737 78.3508 21.5875 71.8756 17.2609C65.4004 12.9343 57.7876 10.625 50 10.625L50 26.375C54.6726 26.375 59.2402 27.7606 63.1253 30.3565C67.0105 32.9525 70.0385 36.6422 71.8267 40.9591C73.6148 45.276 74.0826 50.0262 73.1711 54.609C72.2595 59.1918 70.0094 63.4014 66.7054 66.7054C63.4014 70.0094 59.1918 72.2595 54.609 73.1711C50.0262 74.0826 45.276 73.6148 40.9591 71.8267C36.6422 70.0385 32.9525 67.0105 30.3565 63.1253C27.7606 59.2402 26.375 54.6726 26.375 50H10.625Z" fill="#006FFF"/>
<g filter="url(#filter0_d_0_1)">
<circle cx="38" cy="50" r="6" fill="white"/>
<circle cx="62" cy="50" r="6" fill="white"/>
</g>
</g>
<defs>
<filter id="filter0_d_0_1" x="28" y="40" width="44" height="20" filterUnits="userSpaceOnUse" color-interpolation-filters="sRGB">
<feFlood flood-opacity="0" result="BackgroundImageFix"/>
<feColorMatrix in="SourceAlpha" type="matrix" values="0 0 0 0 0 0 0 0 0 0 0 0 0 0 0 0 0 0 127 0" result="hardAlpha"/>
<feOffset/>
<feGaussianBlur stdDeviation="2"/>
<feComposite in2="hardAlpha" operator="out"/>
<feColorMatrix type="matrix" values="0 0 0 0 1 0 0 0 0 1 0 0 0 0 1 0 0 0 1 0"/>
<feBlend mode="normal" in2="BackgroundImageFix" result="effect1_dropShadow_0_1"/>
<feBlend mode="normal" in="SourceGraphic" in2="effect1_dropShadow_0_1" result="shape"/>
</filter>
<clipPath id="clip0_0_1">
<rect width="100" height="100" fill="white"/>
</clipPath>
</defs>
</svg>
